<?xml version="1.0" encoding="UTF-8"?>
<svg version="1.1" xmlns="http://www.w3.org/2000/svg" width="241" height="237">
<path d="M0 0 C0.598125 0.350625 1.19625 0.70125 1.8125 1.0625 C2.62707974 10.06763428 0.03650575 17.35984045 -2.97171021 25.6854248 C-4.58001882 30.14037285 -6.13463749 34.61412718 -7.6953125 39.0859375 C-8.21500359 40.56942688 -8.21500359 40.56942688 -8.74519348 42.08288574 C-11.80781482 50.86772051 -14.72778778 59.69615706 -17.6171875 68.5390625 C-17.96571116 69.60531294 -17.96571116 69.60531294 -18.32127571 70.69310379 C-20.43047978 77.14875316 -22.53332981 83.60646549 -24.63217163 90.06549072 C-25.74145142 93.4789408 -26.85389636 96.89134644 -27.96815872 100.30317307 C-28.57374505 102.16101909 -29.1754268 104.02013648 -29.77694702 105.87930298 C-31.68479708 111.72182182 -33.6681155 117.53209705 -35.78686523 123.30175781 C-36.17470688 124.36033997 -36.56254852 125.41892212 -36.96214294 126.50958252 C-38.1875 129.0625 -38.1875 129.0625 -41.1875 131.0625 C-44.3125 131.25 -44.3125 131.25 -47.1875 131.0625 C-48.1875 130.0625 -48.1875 130.0625 -48.4140625 126.54101562 C-48.34899071 121.82068685 -47.11831789 117.8289656 -45.5625 113.40625 C-45.29614746 112.61851196 -45.02979492 111.83077393 -44.75537109 111.01916504 C-43.91070844 108.52958742 -43.04944637 106.04613966 -42.1875 103.5625 C-41.60826378 101.8649621 -41.03012776 100.16704837 -40.453125 98.46875 C-39.04393057 94.32888019 -37.61983088 90.19441904 -36.1875 86.0625 C-40.10227655 86.46777926 -44.0166399 86.87682279 -47.93066406 87.28930664 C-49.91450661 87.49758597 -51.89865851 87.70291194 -53.8828125 87.90820312 C-55.13320312 88.04033203 -56.38359375 88.17246094 -57.671875 88.30859375 C-58.82397461 88.42904053 -59.97607422 88.5494873 -61.16308594 88.67358398 C-64.74794591 89.09543415 -64.74794591 89.09543415 -68.1875 90.0625 C-69.29475716 91.67363078 -69.29475716 91.67363078 -69.93237305 93.76049805 C-70.21816727 94.55456558 -70.50396149 95.34863312 -70.79841614 96.16676331 C-71.24431343 97.48220375 -71.24431343 97.48220375 -71.69921875 98.82421875 C-72.0250444 99.74214706 -72.35087006 100.66007538 -72.68656921 101.6058197 C-73.39313238 103.60210088 -74.09233357 105.60099929 -74.78509521 107.60211182 C-75.88047096 110.76580134 -76.99418705 113.92243872 -78.11376953 117.07763672 C-79.27961799 120.36376747 -80.44431999 123.65025442 -81.60339355 126.93878174 C-85.45946858 137.8772697 -89.42904556 148.77258739 -93.44448853 159.6534729 C-94.54850165 162.64951168 -95.6449891 165.64823092 -96.7409668 168.6472168 C-97.41804161 170.48631836 -98.0955106 172.32527486 -98.7734375 174.1640625 C-99.07585861 174.99534164 -99.37827972 175.82662079 -99.68986511 176.68309021 C-101.18528276 180.71381407 -102.63370362 184.56056707 -105.1875 188.0625 C-107.875 188.875 -107.875 188.875 -110.1875 189.0625 C-112.5071591 186.64618844 -113.16468942 185.32967078 -113.45336914 181.94848633 C-113.14125648 177.38659726 -111.98656568 173.71865108 -110.43359375 169.44921875 C-110.14098663 168.61758209 -109.84837952 167.78594543 -109.54690552 166.92910767 C-108.58334941 164.19892177 -107.60434445 161.47455795 -106.625 158.75 C-105.95146066 156.85148596 -105.27886654 154.95263634 -104.60717773 153.0534668 C-102.84188141 148.07114763 -101.06306534 143.0937667 -99.28063965 138.11755371 C-97.46440724 133.04163541 -95.65879322 127.96194099 -93.8515625 122.8828125 C-90.31045713 112.93782885 -86.75380802 102.99847114 -83.1875 93.0625 C-84.50781595 93.62792004 -85.8186301 94.21556472 -87.125 94.8125 C-87.85589844 95.13734375 -88.58679688 95.4621875 -89.33984375 95.796875 C-91.37556644 96.92419372 -91.37556644 96.92419372 -91.94140625 99.203125 C-92.02261719 99.81671875 -92.10382813 100.4303125 -92.1875 101.0625 C-93.84364657 101.44468767 -95.51207024 101.77645102 -97.1875 102.0625 C-98.1875 101.0625 -98.1875 101.0625 -98.5 98.3125 C-98.10793294 94.23500263 -97.03721198 92.96360023 -94.1875 90.0625 C-91.12890625 88.90234375 -91.12890625 88.90234375 -87.75 88 C-82.96708668 86.28301115 -82.96708668 86.28301115 -79.47265625 82.78125 C-78.13996602 79.58638319 -77.16314678 76.38515722 -76.1875 73.0625 C-75.59614917 71.37399308 -74.99376094 69.68932771 -74.3828125 68.0078125 C-67.39825053 49.22654261 -67.39825053 49.22654261 -71.1875 30.0625 C-74.22562253 25.24340909 -77.63018885 22.98188459 -83.15234375 21.5546875 C-92.65623895 19.93919718 -101.9599384 23.09421959 -109.87890625 28.2890625 C-119.83785873 35.93942531 -127.37202143 48.55586984 -129.1875 61.0625 C-129.83000743 68.25753084 -129.83000743 68.25753084 -128.1875 75.0625 C-126.7025 74.0725 -126.7025 74.0725 -125.1875 73.0625 C-120.90267123 72.50705923 -118.89054458 72.59878975 -115.25 75 C-112.48132934 79.11105643 -112.25813455 82.24032079 -113.1875 87.0625 C-115.12777407 90.63260428 -116.87741374 91.88009632 -120.375 93.9375 C-125.72633538 95.51658257 -130.15545814 95.68276599 -135.17578125 93 C-140.31259938 89.12813708 -142.79446328 84.26561057 -144.1875 78.0625 C-146.03480878 62.49979494 -140.73798626 48.94499389 -131.37890625 36.6953125 C-120.7836365 24.03215308 -105.87657033 16.31407214 -89.453125 14.8125 C-80.4402356 14.58857728 -72.24142167 16.18423194 -65.1875 22.0625 C-57.78780093 29.88073409 -55.53650446 38.3907099 -55.40820312 48.8996582 C-55.75814467 60.63055112 -60.91356126 71.31829288 -65.1875 82.0625 C-49.3475 80.5775 -49.3475 80.5775 -33.1875 79.0625 C-32.1975 75.4325 -31.2075 71.8025 -30.1875 68.0625 C-29.50867775 65.84632147 -28.81245109 63.63531246 -28.09033203 61.43286133 C-27.70628204 60.25826859 -27.32223206 59.08367584 -26.92654419 57.87348938 C-26.3170845 56.02765511 -26.3170845 56.02765511 -25.6953125 54.14453125 C-25.37782358 53.18171014 -25.37782358 53.18171014 -25.05392075 52.1994381 C-23.93626693 48.81096071 -22.81507722 45.42367794 -21.69091797 42.03735352 C-20.53983842 38.56749905 -19.40142099 35.09362525 -18.26574898 31.61870289 C-17.38054879 28.91812029 -16.48588314 26.22074078 -15.58871078 23.52411461 C-14.96115825 21.62986129 -14.34362071 19.73229935 -13.72634888 17.83467102 C-9.33648539 4.73173093 -9.33648539 4.73173093 -5.1875 0.0625 C-2.1875 -0.9375 -2.1875 -0.9375 0 0 Z " fill="#090909" transform="translate(144.1875,47.9375)"/>
<path d="M0 0 C1.01122421 0.00555908 1.01122421 0.00555908 2.0428772 0.01123047 C13.04235081 0.09694698 23.23550625 0.9192437 33.6875 4.4375 C34.47592285 4.6953125 35.2643457 4.953125 36.07666016 5.21875 C54.48823705 11.41933563 70.07418103 21.63539848 83.6875 35.4375 C84.41066406 36.16195312 85.13382813 36.88640625 85.87890625 37.6328125 C101.43652504 54.13423986 112.52884512 77.83993558 114.6875 100.4375 C114.78587158 101.4591626 114.78587158 101.4591626 114.88623047 102.50146484 C117.62349921 132.88711717 110.03190082 164.25606111 90.20361328 188.04003906 C87.75207771 190.88967429 85.23530135 193.67395741 82.6875 196.4375 C82.048125 197.14777344 81.40875 197.85804688 80.75 198.58984375 C63.58133682 216.79027755 35.57171016 229.2673162 10.67407227 230.59863281 C-17.32093897 230.96945622 -17.32093897 230.96945622 -29.3125 227.4375 C-30.52164063 227.0971875 -31.73078125 226.756875 -32.9765625 226.40625 C-42.41609425 223.51380549 -55.19657439 219.55342561 -62.3125 212.4375 C-61.9375 210.3125 -61.9375 210.3125 -61.3125 208.4375 C-55.81153329 208.91707146 -51.88070704 210.48642126 -47.0625 213.1875 C-25.13307581 224.84813512 4.48222562 227.60885807 28.3203125 220.890625 C47.10342762 214.90432041 62.41613704 206.10264577 76.6875 192.4375 C77.32300781 191.85355469 77.95851562 191.26960937 78.61328125 190.66796875 C98.04690489 172.2685069 107.81121137 144.10124378 108.6875 117.8984375 C109.07542572 86.6842715 97.08453528 59.67872787 75.6875 37.4375 C75.11644531 36.79167969 74.54539063 36.14585938 73.95703125 35.48046875 C56.44985923 16.26308456 28.13397274 8.04947317 3.07421875 6.54394531 C-14.89907566 5.74235403 -33.51104885 9.80305967 -49.3125 18.4375 C-50.30121094 18.96085937 -51.28992188 19.48421875 -52.30859375 20.0234375 C-71.18322424 30.47934464 -85.2731889 44.9199459 -96.3125 63.4375 C-97.9625 63.1075 -99.6125 62.7775 -101.3125 62.4375 C-99.78815918 51.91766641 -90.48449674 41.95039603 -83.3125 34.4375 C-82.6525 34.4375 -81.9925 34.4375 -81.3125 34.4375 C-81.3125 33.7775 -81.3125 33.1175 -81.3125 32.4375 C-61.15109613 10.44877856 -29.01965815 -0.23336786 0 0 Z " fill="#090909" transform="translate(125.3125,-0.4375)"/>
<path d="M0 0 C2.54644775 3.81967162 2.22188286 5.53903663 1.6484375 9.9609375 C-1.27284935 23.65226985 -9.11250334 36.00316796 -16 48 C-16.38994141 48.67949707 -16.77988281 49.35899414 -17.18164062 50.05908203 C-19.09788513 53.38661472 -21.03527434 56.70087023 -23 60 C-22.25621094 59.51402344 -21.51242188 59.02804688 -20.74609375 58.52734375 C-17.14205753 56.52282289 -13.99064864 56.29714603 -10 57 C-6.62216946 58.68891527 -4.63637519 60.03160297 -2.5625 63.1875 C-1.09580552 70.52097242 -2.99593269 76.18254928 -6.98828125 82.37890625 C-10.84310246 87.40140146 -15.41495585 91.65522018 -20 96 C-24.14818881 99.93815393 -25.8121157 101.82054214 -26.3125 107.625 C-26.24969908 112.4606712 -24.80680985 117.04101203 -22 121 C-20.21163199 122.25966241 -20.21163199 122.25966241 -18 122 C-13.55376379 118.48387976 -11.07807926 114.08616623 -8.4375 109.1875 C-7.87772461 108.17719727 -7.87772461 108.17719727 -7.30664062 107.14648438 C-5.78748756 104.38558881 -4.29452183 101.63792057 -2.97314453 98.77587891 C-2.6429834 98.06222168 -2.31282227 97.34856445 -1.97265625 96.61328125 C-1.687854 95.96786377 -1.40305176 95.32244629 -1.10961914 94.6574707 C0.28591894 92.57291447 1.71218417 91.94375751 4 91 C6.33171248 98.96547741 0.68120496 106.87186218 -2.9375 113.8125 C-6.58045077 120.26918768 -10.54007208 126.80590355 -18 129 C-22.40206704 129.0901727 -25.64731668 128.00602792 -29.1796875 125.37890625 C-35.35950768 119.2107461 -38.34026598 111.47099223 -40 103 C-39.62109375 99.0390625 -39.62109375 99.0390625 -39 96 C-38.02160156 95.65388672 -38.02160156 95.65388672 -37.0234375 95.30078125 C-25.99868593 91.18682528 -18.80084122 84.17059815 -13.7734375 73.36328125 C-12.83286822 70.48931957 -12.86027998 68.00398035 -13 65 C-15.28460205 64.18982174 -16.5003212 63.79816468 -18.7890625 64.72265625 C-23.46677326 68.13638984 -26.83029989 72.08834183 -30.1875 76.75 C-30.5911377 77.30953369 -30.99477539 77.86906738 -31.41064453 78.44555664 C-38.54742541 88.75699465 -42.37023898 100.30828294 -46.34863281 112.07836914 C-47.05069188 114.14725837 -47.76315768 116.21234474 -48.4765625 118.27734375 C-49.096521 120.10640259 -49.096521 120.10640259 -49.72900391 121.97241211 C-50.8916297 124.74185553 -51.57896379 126.27513663 -54 128 C-57.125 128.25 -57.125 128.25 -60 128 C-61 127 -61 127 -61.18751526 123.85173035 C-60.99727628 119.94405232 -60.280292 117.05510183 -58.99975586 113.37231445 C-58.78666779 112.74992889 -58.57357971 112.12754333 -58.35403442 111.48629761 C-57.65114447 109.44161413 -56.93315005 107.40259449 -56.21484375 105.36328125 C-55.715017 103.91936371 -55.21613842 102.47511764 -54.71815491 101.03056335 C-53.40366099 97.22583595 -52.07625903 93.42573693 -50.74609375 89.62646484 C-49.41986514 85.83117657 -48.10596232 82.03163036 -46.79101562 78.23242188 C-44.53813487 71.72834029 -42.27284686 65.22868257 -40.00026608 58.73146057 C-38.60562484 54.74186149 -37.22175927 50.74875309 -35.84790039 46.75195312 C-30.21112243 30.38615649 -30.21112243 30.38615649 -26.5625 22.875 C-26.18762451 22.09568115 -25.81274902 21.3163623 -25.42651367 20.51342773 C-20.1002293 9.78804964 -13.30893885 -1.55270953 0 0 Z M-7.33642578 11.19287109 C-11.48507332 15.96129026 -14.24616811 20.89746135 -16.875 26.625 C-17.29628174 27.52782715 -17.71756348 28.4306543 -18.15161133 29.36083984 C-21.21314996 36.02998269 -24.03055837 42.78519472 -26.6875 49.625 C-27.2141626 50.96618896 -27.2141626 50.96618896 -27.75146484 52.33447266 C-28.06422363 53.1651123 -28.37698242 53.99575195 -28.69921875 54.8515625 C-28.97596436 55.58197754 -29.25270996 56.31239258 -29.5378418 57.06494141 C-30.22728816 59.19806355 -30.22728816 59.19806355 -29 62 C-12.67489119 36.95343509 -12.67489119 36.95343509 -4 10 C-6.04988048 9.77803266 -6.04988048 9.77803266 -7.33642578 11.19287109 Z M-31 62 C-30 64 -30 64 -30 64 Z " fill="#090909" transform="translate(189,52)"/>
<path d="M0 0 C2.24609375 0.05078125 2.24609375 0.05078125 5 1 C6.59816482 3.41361577 7.83707487 5.59667133 9.0625 8.1875 C9.7169566 9.5158525 10.3744829 10.84269726 11.03515625 12.16796875 C11.35339355 12.8134668 11.67163086 13.45896484 11.99951172 14.12402344 C12.97995926 15.9624224 14.06847852 17.63372414 15.26171875 19.33984375 C17 22 17 22 16.75 24.375 C16.5025 24.91125 16.255 25.4475 16 26 C13.7890625 26.44140625 13.7890625 26.44140625 11 26 C9.17005363 23.63809248 7.7921659 21.52993624 6.375 18.9375 C5.9934375 18.28072266 5.611875 17.62394531 5.21875 16.94726562 C-1.2161731 5.6861502 -1.2161731 5.6861502 -0.6875 1.5625 C-0.460625 1.046875 -0.23375 0.53125 0 0 Z " fill="#080808" transform="translate(20,157)"/>
</svg>
