<?xml version="1.0" encoding="UTF-8"?>
<svg version="1.1" xmlns="http://www.w3.org/2000/svg" width="244" height="240">
<path d="M0 0 C4.55555556 0.55555556 4.55555556 0.55555556 6 2 C6.32860886 7.72086363 5.60090838 12.33487884 3.71191406 17.7565918 C3.46784317 18.48836639 3.22377228 19.22014099 2.9723053 19.97409058 C2.16465277 22.3864139 1.34017073 24.79262281 0.515625 27.19921875 C-0.06208346 28.9148134 -0.6386593 30.63078983 -1.21417236 32.34712219 C-2.73787759 36.88205919 -4.27558476 41.41212048 -5.81671143 45.94116211 C-7.63476084 51.29103794 -9.43795392 56.64592993 -11.24219513 62.00047493 C-11.53726707 62.87616568 -11.83233902 63.75185642 -12.13635254 64.65408325 C-12.57821648 65.96542425 -12.57821648 65.96542425 -13.02900696 67.30325699 C-13.92110359 69.94693272 -14.81640667 72.58950515 -15.71228027 75.23190308 C-18.69300901 84.03854662 -21.61556603 92.85915832 -24.42773438 101.72119141 C-24.70139957 102.58024613 -24.97506477 103.43930086 -25.25702286 104.32438755 C-26.55405104 108.39788123 -27.84026582 112.47416542 -29.10662842 116.55729675 C-29.56576328 118.00684298 -30.02531382 119.45625764 -30.48535156 120.90551758 C-30.87644104 122.16012283 -31.26753052 123.41472809 -31.67047119 124.70735168 C-33.04583007 128.11350058 -34.40960315 130.40119574 -37 133 C-40.6875 133.375 -40.6875 133.375 -44 133 C-45 132 -45 132 -45.24023438 128.4921875 C-45.17309584 123.6603615 -43.82105062 119.6215418 -42.15625 115.125 C-41.86770142 114.31506592 -41.57915283 113.50513184 -41.28186035 112.6706543 C-40.36633523 110.1093623 -39.43352354 107.55477971 -38.5 105 C-37.8725406 103.2543218 -37.24622685 101.50823136 -36.62109375 99.76171875 C-35.09393413 95.50293159 -33.55124963 91.25006854 -32 87 C-32.97622314 87.13784912 -33.95244629 87.27569824 -34.95825195 87.41772461 C-46.85860789 89.06836667 -46.85860789 89.06836667 -52.04296875 89.31640625 C-52.74357422 89.35958984 -53.44417969 89.40277344 -54.16601562 89.44726562 C-55.55526521 89.52645956 -56.9465515 89.57422014 -58.33789062 89.59570312 C-60.71986716 89.68760857 -60.71986716 89.68760857 -64 91 C-65.13212064 92.62722983 -65.13212064 92.62722983 -65.90478516 94.71435547 C-66.23981552 95.53059891 -66.57484589 96.34684235 -66.92002869 97.18782043 C-69.04070123 102.70992266 -71.09435675 108.25357752 -73.10546875 113.81640625 C-73.59354381 115.15863742 -74.08193894 116.50075224 -74.57063293 117.84275818 C-75.85381808 121.36867098 -77.13340596 124.89587744 -78.4119873 128.42346191 C-82.36386477 139.32362701 -86.32903259 150.21895763 -90.30925751 161.1088028 C-90.98898282 162.96983584 -91.66714233 164.83144055 -92.34527588 166.6930542 C-93.57323639 170.05718752 -94.81037495 173.41778286 -96.05078125 176.77734375 C-96.40939743 177.76360245 -96.76801361 178.74986115 -97.13749695 179.76600647 C-97.47279922 180.66814377 -97.8081015 181.57028107 -98.15356445 182.49975586 C-98.43972122 183.27782089 -98.72587799 184.05588593 -99.02070618 184.85752869 C-100.10651105 187.23302185 -101.2367726 189.06917622 -103 191 C-106.1875 191.25 -106.1875 191.25 -109 191 C-111.32981566 187.71084848 -110.98233289 185.10760219 -110.4324646 181.23684692 C-109.6948557 177.42169489 -108.42444857 173.83445851 -107.11328125 170.18359375 C-106.81935486 169.34526001 -106.52542847 168.50692627 -106.22259521 167.64318848 C-105.26028699 164.90516628 -104.28651131 162.1713784 -103.3125 159.4375 C-102.64121525 157.53415778 -101.97056916 155.63059021 -101.30053711 153.72680664 C-97.86766313 143.99209015 -94.38611238 134.27488376 -90.890625 124.5625 C-90.56567551 123.65927505 -90.24072601 122.75605011 -89.90592957 121.82545471 C-88.34960983 117.50232793 -86.78838341 113.18108238 -85.21801758 108.86303711 C-84.65706179 107.31364005 -84.09610791 105.7642423 -83.53515625 104.21484375 C-83.14719879 103.15541565 -83.14719879 103.15541565 -82.75140381 102.07458496 C-81.44154713 98.62557842 -81.44154713 98.62557842 -81 95 C-84.62032834 96.26778269 -84.62032834 96.26778269 -88 98 C-89.28254644 100.53770003 -89.28254644 100.53770003 -90 103 C-90.99 103.33 -91.98 103.66 -93 104 C-93.99 103.01 -94.98 102.02 -96 101 C-95.05869113 94.99915593 -95.05869113 94.99915593 -92.40234375 92.4921875 C-87.54135917 89.26441643 -82.69960497 87.95307589 -77 87 C-76.83129395 86.41516846 -76.66258789 85.83033691 -76.48876953 85.2277832 C-74.1979187 77.42557681 -71.51228532 69.78539623 -68.78515625 62.12695312 C-68.26888672 60.66225586 -68.26888672 60.66225586 -67.7421875 59.16796875 C-67.27594971 57.85735474 -67.27594971 57.85735474 -66.80029297 56.52026367 C-63.99697825 47.69213134 -64.15800631 39.47547105 -68 31 C-71.05339485 26.15668402 -74.61557918 24.20092352 -79.9375 22.3125 C-89.62804918 20.84423497 -99.11992417 23.80306861 -107.3125 29.0625 C-117.11076984 36.52254636 -124.04135269 48.68785263 -126.73046875 60.67578125 C-127.35807849 66.08777832 -127.13745736 71.56279763 -127 77 C-125.87271484 76.25556641 -125.87271484 76.25556641 -124.72265625 75.49609375 C-121.02015664 73.46157818 -119.02091345 73.90338724 -115 75 C-111.78169627 77.20199729 -111.11060248 78.60183107 -110.0625 82.375 C-109.98915639 86.62892954 -110.59425392 88.50778794 -113 92 C-116.85547815 95.17005981 -119.99155014 96.79557348 -125 97 C-130.01125365 96.03291596 -133.42492308 94.67170062 -137 91 C-142.75660944 81.40565094 -143.62207146 71.04109942 -141.12890625 60.21875 C-138.4970231 52.41802092 -134.79454973 45.6697015 -130 39 C-129.278125 37.96875 -128.55625 36.9375 -127.8125 35.875 C-117.8179174 24.6107473 -102.69474325 16.75850339 -87.6875 15.78515625 C-77.7741548 15.51809415 -69.93049345 16.22734363 -62.125 22.6875 C-54.4772679 30.17337534 -52.63047035 38.31176493 -51.97412109 48.85107422 C-52.07556697 57.27490982 -55.30853022 65.30257864 -58.125 73.125 C-58.49753906 74.176875 -58.87007813 75.22875 -59.25390625 76.3125 C-60.16321807 78.87722564 -61.07865751 81.43957707 -62 84 C-61.01 83.67 -60.02 83.34 -59 83 C-56.7919767 82.7140108 -54.57860304 82.46859332 -52.36328125 82.24609375 C-51.06455078 82.11396484 -49.76582031 81.98183594 -48.42773438 81.84570312 C-47.05599692 81.7095615 -45.68425203 81.57349475 -44.3125 81.4375 C-42.92900477 81.29783964 -41.54554079 81.1578693 -40.16210938 81.01757812 C-36.77503514 80.67533021 -33.38767228 80.33626815 -30 80 C-29.81731567 79.43719833 -29.63463135 78.87439667 -29.44641113 78.29454041 C-27.5016495 72.30488088 -25.55347015 66.31634005 -23.60351562 60.32836914 C-22.88132777 58.10923924 -22.15994176 55.88984819 -21.43945312 53.67016602 C-18.98361782 46.10543868 -16.50606995 38.54824057 -14 31 C-13.46028564 29.37254852 -13.46028564 29.37254852 -12.90966797 27.71221924 C-11.85694231 24.55564054 -10.7904013 21.40410374 -9.71875 18.25390625 C-9.4036145 17.30748764 -9.088479 16.36106903 -8.76379395 15.38597107 C-6.70321027 9.39495295 -4.54184011 4.54184011 0 0 Z " fill="#FAA12A" transform="translate(142,48)"/>
<path d="M0 0 C2.0276983 -0.0095929 4.05433083 -0.04061367 6.08178711 -0.07226562 C36.2217065 -0.31513714 64.3802281 12.86695865 85.6574707 33.77929688 C100.51440505 48.55229374 110.29332406 66.13367356 116.12670898 86.24023438 C116.44897461 87.30757813 116.77124023 88.37492187 117.10327148 89.47460938 C124.08318733 117.26380703 119.26558256 149.89454882 104.84155273 174.57226562 C91.85379336 194.77873408 76.50118391 210.14683112 55.12670898 221.24023438 C54.22694336 221.71074219 53.32717773 222.18125 52.40014648 222.66601562 C26.86371292 235.12563502 -5.31539916 237.64244434 -32.26782227 228.47070312 C-53.55586978 220.81651061 -53.55586978 220.81651061 -58.87329102 216.24023438 C-59.63891602 213.56445313 -59.63891602 213.56445313 -59.87329102 211.24023438 C-56.36700937 210.00972799 -55.07485846 210.14843619 -51.63110352 211.71679688 C-50.41464005 212.42351543 -49.20397458 213.14027808 -47.99829102 213.86523438 C-24.03427206 227.37260166 5.17898508 230.01670232 31.64135742 222.96777344 C60.19640906 214.60882905 84.18279524 196.99468059 98.90844727 170.89282227 C103.33949584 162.6400645 106.64602601 154.28743109 109.12670898 145.24023438 C109.44510742 144.14453125 109.76350586 143.04882812 110.09155273 141.91992188 C117.07233202 113.67510982 111.06565675 84.40597907 97.09155273 59.42382812 C88.47952446 45.46994534 77.09805112 32.92396087 63.12670898 24.24023438 C62.22694336 23.65757813 61.32717773 23.07492188 60.40014648 22.47460938 C35.86748546 7.26568205 6.00336025 2.99732517 -22.05688477 9.09179688 C-50.2369303 16.18728429 -75.49514254 33.24720312 -90.56079102 58.30273438 C-91.0802832 59.22183594 -91.59977539 60.1409375 -92.13500977 61.08789062 C-93.87329102 63.24023438 -93.87329102 63.24023438 -96.58032227 64.04882812 C-97.7153418 64.14357422 -97.7153418 64.14357422 -98.87329102 64.24023438 C-99.72485352 62.26757812 -99.72485352 62.26757812 -99.87329102 59.24023438 C-98.33494969 56.18619735 -96.30000121 53.52966097 -94.24829102 50.80273438 C-93.71333008 50.06474609 -93.17836914 49.32675781 -92.62719727 48.56640625 C-89.53084966 44.32870424 -86.39259598 40.13616671 -82.87329102 36.24023438 C-82.21329102 36.24023438 -81.55329102 36.24023438 -80.87329102 36.24023438 C-80.87329102 35.58023438 -80.87329102 34.92023437 -80.87329102 34.24023438 C-80.21329102 34.24023438 -79.55329102 34.24023438 -78.87329102 34.24023438 C-78.54329102 33.25023437 -78.21329102 32.26023438 -77.87329102 31.24023438 C-57.16325626 11.21383184 -28.57791164 0.08133166 0 0 Z " fill="#EC6B4C" transform="translate(123.873291015625,-0.240234375)"/>
<path d="M0 0 C2.32582171 4.65164342 1.45995513 9.48196628 0.01171875 14.26171875 C-6.07555832 30.12293365 -14.51006247 44.94847414 -24 59 C-23.01 58.67 -22.02 58.34 -21 58 C-17.38069302 56.79356434 -14.80768995 56.67731441 -11 57 C-7.94642921 58.61320721 -5.76166434 60.03060902 -3.625 62.75 C-1.77214825 69.42026631 -2.96061426 74.32665693 -6.1796875 80.27734375 C-10.53625006 86.79348989 -16.09469752 92.73099839 -22.22265625 97.60546875 C-25.38599931 100.33279546 -26.7177482 102.0169062 -27.30078125 106.11328125 C-27.33704856 112.91944592 -25.81259019 117.28111472 -22 123 C-19.11352436 122.67655791 -17.45039186 122.43667969 -15.33203125 120.3828125 C-9.47011376 111.67281684 -4.75683909 102.34672104 0 93 C1.32 93 2.64 93 4 93 C3.52877068 99.1191517 2.1606736 103.59102899 -0.6875 109 C-1.22661011 110.04655762 -1.22661011 110.04655762 -1.77661133 111.11425781 C-5.35776733 117.92474253 -9.26848411 124.89541714 -16 129 C-20.17449002 130.2602234 -23.08504384 130.27974321 -27.0625 128.625 C-34.78357474 124.23429212 -37.84063332 115.93583129 -40.3046875 107.80859375 C-41.19564077 104.20974318 -41.62391592 101.66550602 -41 98 C-38.74254866 95.36630676 -36.64463989 94.89158505 -33.3125 93.875 C-25.00056174 90.91309663 -18.88201828 82.66005393 -15 75 C-13.8422494 71.52674819 -13.93133348 68.63932552 -14 65 C-14.99 64.67 -15.98 64.34 -17 64 C-32.45165037 71.90549554 -39.73969219 90.48968212 -45 106 C-45.91722635 108.70223561 -46.83561233 111.40398066 -47.76147461 114.10327148 C-48.36815456 115.87820622 -48.96568087 117.65630222 -49.55297852 119.43774414 C-49.82811279 120.24848389 -50.10324707 121.05922363 -50.38671875 121.89453125 C-50.62608154 122.61487549 -50.86544434 123.33521973 -51.11206055 124.07739258 C-52.12983282 126.28112001 -53.07636548 127.51844118 -55 129 C-58.6875 129.1875 -58.6875 129.1875 -62 129 C-63.70380789 123.06571457 -61.99760658 118.89755587 -60 113.3125 C-59.65259766 112.30646729 -59.30519531 111.30043457 -58.94726562 110.26391602 C-57.89643095 107.23088503 -56.83222138 104.2028289 -55.76464844 101.17565918 C-54.30030512 97.0091536 -52.85502155 92.83600225 -51.40625 88.6640625 C-49.12097088 82.08698424 -46.82687822 75.51309871 -44.52236938 68.94273376 C-42.16980967 62.23490783 -39.82443556 55.52678196 -37.5703125 48.78515625 C-23.88669881 7.93899167 -23.88669881 7.93899167 -8.5625 -0.3125 C-5.36107291 -1.17141946 -3.179038 -0.86701036 0 0 Z M-8.33642578 11.19287109 C-12.48507332 15.96129026 -15.24616811 20.89746135 -17.875 26.625 C-18.29628174 27.52782715 -18.71756348 28.4306543 -19.15161133 29.36083984 C-22.21314996 36.02998269 -25.03055837 42.78519472 -27.6875 49.625 C-28.2141626 50.96618896 -28.2141626 50.96618896 -28.75146484 52.33447266 C-29.06422363 53.1651123 -29.37698242 53.99575195 -29.69921875 54.8515625 C-29.97596436 55.58197754 -30.25270996 56.31239258 -30.5378418 57.06494141 C-31.22728816 59.19806355 -31.22728816 59.19806355 -30 62 C-24.09315983 51.23707035 -18.20206336 40.46495668 -12.4375 29.625 C-12.03289551 28.8724292 -11.62829102 28.1198584 -11.21142578 27.34448242 C-6.68402798 19.0770356 -6.68402798 19.0770356 -5 10 C-7.04988048 9.77803266 -7.04988048 9.77803266 -8.33642578 11.19287109 Z M-32 62 C-31 64 -31 64 -31 64 Z " fill="#EC6D39" transform="translate(192,53)"/>
<path d="M0 0 C2.2109375 0.01171875 2.2109375 0.01171875 5 1 C6.91236789 3.40321414 8.23882262 6.08077458 9.625 8.8125 C10.38555469 10.25781085 11.14851027 11.70186127 11.9140625 13.14453125 C12.26911865 13.82177246 12.6241748 14.49901367 12.98999023 15.19677734 C14.03135367 17.15070563 14.03135367 17.15070563 15.76171875 19.33984375 C17.44356853 21.59468967 17.22813709 23.26235489 17 26 C15.68 26.33 14.36 26.66 13 27 C8.94058567 22.02721744 5.63931928 16.86614651 2.5625 11.25 C2.19640625 10.60023193 1.8303125 9.95046387 1.453125 9.28100586 C-1.06509321 4.57575403 -1.06509321 4.57575403 -0.72265625 1.546875 C-0.48417969 1.03640625 -0.24570312 0.5259375 0 0 Z " fill="#EE5639" transform="translate(20,159)"/>
<path d="M0 0 C3.25 -0.375 3.25 -0.375 7 0 C9.68540959 2.96083621 10.90209888 4.87413716 11.25 8.875 C11.1675 9.57625 11.085 10.2775 11 11 C9.68 11.33 8.36 11.66 7 12 C6.01287122 10.75627811 5.03560095 9.50472782 4.0625 8.25 C3.51722656 7.55390625 2.97195312 6.8578125 2.41015625 6.140625 C1.02574346 4.03907872 0.43713013 2.45678201 0 0 Z " fill="#EC8E1D" transform="translate(26,174)"/>
<path d="M0 0 C2.3125 0.125 2.3125 0.125 5 1 C6.8125 4.0625 6.8125 4.0625 8 7 C5.69 7 3.38 7 1 7 C-0.0625 4.625 -0.0625 4.625 -1 2 C-0.67 1.34 -0.34 0.68 0 0 Z " fill="#EE466C" transform="translate(20,159)"/>
<path d="M0 0 C2.31 0 4.62 0 7 0 C7.33 1.32 7.66 2.64 8 4 C5.69 4 3.38 4 1 4 C0.67 2.68 0.34 1.36 0 0 Z " fill="#ED722A" transform="translate(26,174)"/>
<path d="M0 0 C2.31 0 4.62 0 7 0 C7.33 1.32 7.66 2.64 8 4 C6.02 4 4.04 4 2 4 C1.34 2.68 0.68 1.36 0 0 Z " fill="#EF4550" transform="translate(21,166)"/>
<path d="M0 0 C0.33 0 0.66 0 1 0 C1 1.65 1 3.3 1 5 C-0.32 5.33 -1.64 5.66 -3 6 C-3.99 4.68 -4.98 3.36 -6 2 C-4.02 2 -2.04 2 0 2 C0 1.34 0 0.68 0 0 Z " fill="#EBA80C" transform="translate(36,180)"/>
<path d="M0 0 C1.65 0.33 3.3 0.66 5 1 C5.33 1.99 5.66 2.98 6 4 C3.69 3.67 1.38 3.34 -1 3 C-0.67 2.01 -0.34 1.02 0 0 Z " fill="#EC4789" transform="translate(20,159)"/>
</svg>
