<?xml version="1.0" encoding="utf-8"?>
<!-- Generator: Adobe Illustrator 16.0.0, SVG Export Plug-In . SVG Version: 6.00 Build 0)  -->
<!DOCTYPE svg PUBLIC "-//W3C//DTD SVG 1.1//EN" "http://www.w3.org/Graphics/SVG/1.1/DTD/svg11.dtd">
<svg version="1.1" id="Layer_1" xmlns="http://www.w3.org/2000/svg" xmlns:xlink="http://www.w3.org/1999/xlink" x="0px" y="0px"
	 width="720px" height="984.024px" viewBox="0 0 720 984.024" enable-background="new 0 0 720 984.024" xml:space="preserve">
<rect fill="#1D1D93" stroke="#000000" stroke-miterlimit="10" width="720" height="984.024"/>
<g id="Layer_x0020_1">
	<g id="_523194618928">
		<path fill="#FFFFFF" d="M404.208,773.424c-13.176,0-21.456,1.943-33.984,1.943c-7.271,0-35.928,0.432-41.256-0.504
			c-2.592-0.432-6.695-0.576-8.063-7.488l-1.296-21.959c-2.017-18.145,1.512-48.816,9.575-66.457
			c10.729-23.471,22.824-36.359,42.12-51.047c4.393-3.313,14.473-9.432,20.232-10.801c0.072,0.145,0.144,0.217,0.216,0.359
			l1.729,4.465c1.871,4.607,2.52,6.912,2.88,12.672c3.456,54.936-28.225,87.695,2.088,131.904
			C401.184,770.471,403.2,769.825,404.208,773.424z M313.92,590.905h-2.952c-10.152-43.561-30.744-78.625-84.456-78.625
			c-23.472,0-43.632,5.184-63.504,13.176c-14.76,5.977-27,12.385-2.592,15.049c38.664,4.248,60.12,25.127,74.592,61.344
			c10.08,25.344,12.096,55.008,15.552,80.568l2.16,89.064c-11.16,0-22.824,1.15-34.344-0.576l-28.728-1.369
			c-9.072-0.287-52.2-4.896-56.304-2.951c2.592,3.887,6.552,4.104,12.24,5.328c5.4,1.152,9.504,2.303,14.76,3.6
			c9.216,2.305,19.512,5.184,28.512,7.416c36.864,9.145,79.416,23.111,116.856,28.729c10.872,1.654,20.088,3.238,31.32,4.68
			c37.584,4.752,70.92,3.168,108.504-2.592c29.88-4.537,84.6-21.168,112.608-32.977c5.039-2.16,9.647-4.393,14.111-6.264
			l56.376-27.145c30.097-18.145-20.592-2.52-30.528-0.432c-13.176,2.809-24.479,5.904-38.159,8.424
			c-7.2,1.367-13.104,2.232-19.8,3.6c-21.385,4.248-43.776,7.633-66.097,7.633c0-24.193,4.896-62.785,4.896-88.273V633.6
			c0-16.199-2.593-31.607-3.889-46.584c-0.863-10.943-5.328-31.535-8.352-42.119c-4.392-15.48-7.488-23.186-15.336-35.137
			c-7.272-11.016-18.36-18.865-32.616-18.865c-18.576,0-35.784,16.777-48.672,27.072c-8.064,6.408-29.088,33.121-35.424,42.266
			l-15.624,22.176C314.424,587.52,314.208,587.303,313.92,590.905z"/>
		<path fill="#FD0006" d="M357.624,199.728c-5.256,0-7.56-2.952-13.104-10.296l-19.008-27.576
			c-0.504-0.864-12.744-22.752-16.199-7.56c-0.433,1.728-0.288,2.376-0.721,4.176c-5.256,20.592-24.336,59.544-35.856,76.752
			l-25.056,38.088c-6.048,9-19.584,31.896-23.184,40.824c-2.088,5.112-4.68,9.072-6.552,14.76
			c-13.752,41.4-14.544,74.664,9.144,113.904c5.112,8.496,10.152,15.336,16.056,22.752c4.536,5.616,14.04,20.521,20.304,20.521
			c6.984,0,1.944-10.368,1.944-22.32c0-18.72-1.152-19.152,4.464-38.232c4.464-14.976,19.44-39.24,29.232-49.392l65.016-64.08
			c2.809-2.808,3.816-3.384,6.769-5.832c8.136-6.84,37.8-39.384,43.056-48.24c14.473-24.048,22.32-33.984,22.32-66.024
			c0-32.256-14.832-55.296-28.512-78.336c-2.88-4.824-5.185-8.352-8.856-12.528l-2.16-2.664c-1.368-2.016-0.792-1.44-2.447-3.312
			c-2.017-2.232-3.024-3.528-4.896-5.832c-16.272-20.088-17.424-6.912-20.088,16.344c-1.152,10.584-2.88,21.024-3.816,31.104
			l-5.976,55.152C358.848,196.704,357.984,195.336,357.624,199.728z"/>
		<path fill="#06AFA5" d="M365.328,498.672c16.488,0,54.647-16.201,70.271-23.905c11.232-5.544,25.416-13.752,34.992-21.312
			c3.816-2.952,6.696-5.04,10.008-8.424c10.513-10.656,14.977-11.16,26.28-30.024c7.632-12.527,18.648-41.256,18.648-56.088
			c0-36.864-8.064-73.728-21.313-106.848l-11.376-23.544c-2.88-5.76-5.184-13.32-11.016-13.32c-6.48,0-10.152,27.288-18.072,43.056
			c-16.632,32.904-30.816,43.488-51.336,68.112l-1.8,2.088c-2.664,3.096-4.824,5.04-7.632,7.848l-51.408,48.6
			c-1.584,1.44-2.448,2.304-3.96,3.816c-9.648,9.792-20.017,22.968-25.128,37.008c-6.984,19.296-1.513,31.752,8.352,45.359
			C336.384,478.8,356.472,498.672,365.328,498.672z"/>
		<path fill="#06AFA5" d="M353.736,829.727h-82.512c-22.392,0-41.76-2.734-62.208-3.887c-19.08-1.008-44.208-4.896-63.072-4.896
			c-3.672,0-0.36-0.287-2.88,1.008c1.224,4.537,1.944,3.385,10.872,5.617c5.04,1.223,8.784,2.23,13.968,3.527l83.304,21.527
			c15.048,4.248,41.544,8.713,57.528,11.377c21.456,3.527,53.279,5.543,75.096,5.543c43.848,0,92.952-12.744,132.336-25.848
			c20.16-6.768,84.096-34.127,102.6-45c2.881-1.729,3.744-2.375,3.816-6.84c-6.696-1.584-36.216,7.775-45.36,9.936l-81.216,15.84
			c-20.16,3.385-55.439,7.344-77.328,9.145c-9.359,0.721-12.672,0.217-27.288,1.801L353.736,829.727z"/>
	</g>
</g>
</svg>
